<svg xmlns="http://www.w3.org/2000/svg" viewBox="0 0 14.32 16"><defs><style>.cls-1{fill:#FFF;}</style></defs><title>Recurso 1</title><g id="Capa_2" data-name="Capa 2"><g id="Capa_1-2" data-name="Capa 1"><path class="cls-1" d="M2.79,10.17C4.44,12.45,8.11,15.89,10,16a3.4,3.4,0,0,0,2.86-1.15L9.6,11.46a.78.78,0,0,1-.53.41c-.22,0-1.41-.17-3.27-2.81S4,6.11,4.16,5.56c.06-.17.29-.28.29-.28L1.9.76S-.05,1.89,0,3.53A14,14,0,0,0,2.79,10.17Zm7.4.71,3.57,3.44s.35-.59.45-.79.25-.35-.25-.76-2.35-2-2.61-2.27-.54-.35-.86,0S10.19,10.88,10.19,10.88ZM5,4.66l.5-.24c.46-.22.42-.52.27-.83S4.56,1.07,4.29.48,3.84,0,3.6,0L2.68.3Z"/></g></g></svg>