<?xml version="1.0" encoding="utf-8"?>
<!-- Generator: Adobe Illustrator 21.0.1, SVG Export Plug-In . SVG Version: 6.00 Build 0)  -->
<svg version="1.1" id="CRON" xmlns="http://www.w3.org/2000/svg" xmlns:xlink="http://www.w3.org/1999/xlink" x="0px" y="0px"
	 viewBox="0 0 411 159" style="enable-background:new 0 0 411 159;" xml:space="preserve">
<style type="text/css">
	.st0{enable-background:new    ;}
	.st1{fill:#FFFFFF;}
</style>
<g id="Capa_2">
	<g id="Capa_1-2">
		<g class="st0">
			<path class="st1" d="M160.6,153.2v-18.5h5.7c1.9,0,3.3,0.4,4.3,1.2c1,0.8,1.4,2.1,1.4,3.7c0,0.9-0.2,1.6-0.7,2.3
				c-0.5,0.7-1.1,1.2-1.9,1.5c0.9,0.3,1.7,0.8,2.2,1.6s0.8,1.7,0.8,2.8c0,1.7-0.5,3-1.5,3.9c-1,1-2.4,1.4-4.3,1.4H160.6z
				 M162.9,142.6h3.5c1,0,1.8-0.3,2.4-0.8c0.6-0.5,0.9-1.3,0.9-2.2c0-1-0.3-1.8-0.8-2.2c-0.6-0.5-1.4-0.7-2.5-0.7h-3.4V142.6z
				 M162.9,144.5v6.7h3.8c1.1,0,1.9-0.3,2.5-0.9c0.6-0.6,0.9-1.4,0.9-2.4c0-2.2-1.1-3.3-3.4-3.3H162.9z"/>
			<path class="st1" d="M184.7,141.5c-0.3-0.1-0.7-0.1-1.1-0.1c-1.5,0-2.4,0.7-3,2v9.8h-2.2v-13.8h2.2l0,1.6
				c0.7-1.2,1.8-1.8,3.1-1.8c0.4,0,0.8,0.1,1,0.2V141.5z"/>
			<path class="st1" d="M197.2,153.2c-0.1-0.3-0.2-0.8-0.3-1.5c-1,1.1-2.3,1.7-3.7,1.7c-1.3,0-2.3-0.4-3.1-1.2
				c-0.8-0.8-1.2-1.7-1.2-2.9c0-1.4,0.5-2.5,1.5-3.3s2.5-1.2,4.3-1.2h2.2v-1.1c0-0.8-0.2-1.5-0.7-2s-1.1-0.7-2-0.7
				c-0.8,0-1.5,0.2-2,0.6c-0.5,0.4-0.8,0.9-0.8,1.5h-2.2c0-0.7,0.2-1.4,0.7-2c0.5-0.6,1.1-1.1,1.9-1.5c0.8-0.4,1.6-0.6,2.6-0.6
				c1.5,0,2.7,0.4,3.5,1.2s1.3,1.9,1.3,3.3v6.3c0,1.3,0.2,2.3,0.5,3v0.2H197.2z M193.5,151.4c0.7,0,1.4-0.2,2-0.6
				c0.6-0.4,1.1-0.9,1.4-1.5v-2.8h-1.7c-2.7,0-4.1,0.8-4.1,2.5c0,0.7,0.2,1.3,0.7,1.7C192.2,151.2,192.8,151.4,193.5,151.4z"/>
			<path class="st1" d="M207.5,139.4l0.1,1.7c1-1.3,2.3-2,3.9-2c2.7,0,4.1,1.6,4.1,4.9v9.1h-2.2v-9.1c0-1-0.2-1.7-0.6-2.2
				c-0.4-0.5-1.1-0.7-2-0.7c-0.7,0-1.3,0.2-1.9,0.6s-1,0.9-1.3,1.6v9.8h-2.2v-13.8H207.5z"/>
			<path class="st1" d="M221.4,146.2c0-2.1,0.5-3.8,1.4-5.1c0.9-1.3,2.2-1.9,3.7-1.9c1.5,0,2.7,0.6,3.6,1.7v-7.2h2.2v19.6h-2
				l-0.1-1.5c-0.9,1.2-2.1,1.7-3.7,1.7c-1.5,0-2.7-0.7-3.7-2c-0.9-1.3-1.4-3-1.4-5.1V146.2z M223.6,146.5c0,1.6,0.3,2.8,0.9,3.7
				c0.6,0.9,1.4,1.3,2.5,1.3c1.4,0,2.4-0.7,3.1-2v-6.3c-0.7-1.3-1.7-1.9-3.1-1.9c-1.1,0-1.9,0.4-2.5,1.3
				C223.9,143.4,223.6,144.7,223.6,146.5z"/>
			<path class="st1" d="M238.6,135.8c0-0.4,0.1-0.7,0.3-1c0.2-0.3,0.5-0.4,1-0.4c0.4,0,0.8,0.1,1,0.4c0.2,0.3,0.3,0.6,0.3,1
				s-0.1,0.7-0.3,1c-0.2,0.3-0.6,0.4-1,0.4c-0.4,0-0.8-0.1-1-0.4C238.8,136.5,238.6,136.1,238.6,135.8z M241,153.2h-2.2v-13.8h2.2
				V153.2z"/>
			<path class="st1" d="M249.6,139.4l0.1,1.7c1-1.3,2.3-2,3.9-2c2.7,0,4.1,1.6,4.1,4.9v9.1h-2.2v-9.1c0-1-0.2-1.7-0.6-2.2
				c-0.4-0.5-1.1-0.7-2-0.7c-0.7,0-1.3,0.2-1.9,0.6s-1,0.9-1.3,1.6v9.8h-2.2v-13.8H249.6z"/>
			<path class="st1" d="M263.4,146.2c0-2.1,0.5-3.9,1.4-5.1c0.9-1.3,2.2-1.9,3.7-1.9c1.6,0,2.8,0.6,3.7,1.8l0.1-1.5h2v13.4
				c0,1.8-0.5,3.2-1.5,4.2s-2.3,1.5-4,1.5c-0.9,0-1.8-0.2-2.7-0.6s-1.6-1-2-1.7l1.1-1.4c0.9,1.2,2.1,1.9,3.5,1.9
				c1.1,0,1.9-0.3,2.5-1s0.9-1.6,0.9-2.7v-1.2c-0.9,1.1-2.1,1.6-3.6,1.6c-1.5,0-2.7-0.6-3.7-1.9S263.4,148.4,263.4,146.2z
				 M265.6,146.5c0,1.6,0.3,2.8,0.9,3.7s1.4,1.3,2.5,1.3c1.4,0,2.4-0.7,3.1-2v-6.3c-0.7-1.3-1.7-2-3.1-2c-1.1,0-1.9,0.4-2.5,1.3
				C266,143.4,265.6,144.7,265.6,146.5z"/>
			<path class="st1" d="M297.1,149.5c0-0.6-0.2-1.1-0.7-1.5c-0.5-0.4-1.2-0.7-2.4-0.9s-2-0.6-2.7-0.9c-0.7-0.4-1.1-0.8-1.5-1.3
				s-0.5-1.1-0.5-1.8c0-1.1,0.4-2.1,1.3-2.9s2-1.2,3.4-1.2c1.5,0,2.7,0.4,3.6,1.2s1.4,1.8,1.4,3.1H297c0-0.6-0.3-1.2-0.8-1.7
				s-1.2-0.7-1.9-0.7c-0.8,0-1.4,0.2-1.9,0.6c-0.5,0.4-0.7,0.9-0.7,1.5c0,0.6,0.2,1,0.6,1.3c0.4,0.3,1.2,0.6,2.3,0.8
				c1.1,0.3,2,0.6,2.7,0.9c0.7,0.4,1.2,0.8,1.5,1.3s0.5,1.1,0.5,1.9c0,1.2-0.5,2.2-1.4,3s-2.1,1.1-3.6,1.1c-1,0-2-0.2-2.8-0.6
				s-1.4-0.9-1.9-1.6c-0.5-0.7-0.7-1.5-0.7-2.3h2.2c0,0.8,0.3,1.4,0.9,1.9s1.3,0.7,2.2,0.7c0.8,0,1.5-0.2,2-0.5
				C296.9,150.6,297.1,150.1,297.1,149.5z"/>
			<path class="st1" d="M304.6,146.2c0-1.3,0.2-2.6,0.7-3.6c0.5-1.1,1.2-1.9,2.1-2.5s1.9-0.9,3-0.9c1.8,0,3.2,0.6,4.3,1.9
				s1.6,3,1.6,5.2v0.2c0,1.3-0.2,2.5-0.7,3.6c-0.5,1.1-1.2,1.9-2.1,2.5c-0.9,0.6-1.9,0.9-3.1,0.9c-1.8,0-3.2-0.6-4.3-1.9
				c-1.1-1.3-1.6-3-1.6-5.2V146.2z M306.8,146.5c0,1.5,0.3,2.8,1,3.7c0.7,0.9,1.6,1.4,2.7,1.4c1.1,0,2-0.5,2.7-1.4s1-2.3,1-3.9
				c0-1.5-0.3-2.7-1-3.7c-0.7-0.9-1.6-1.4-2.7-1.4c-1.1,0-2,0.5-2.6,1.4C307.1,143.4,306.8,144.7,306.8,146.5z"/>
			<path class="st1" d="M324.5,153.2h-2.2v-19.6h2.2V153.2z"/>
			<path class="st1" d="M338.9,151.8c-0.9,1.1-2.1,1.6-3.8,1.6c-1.4,0-2.4-0.4-3.2-1.3c-0.7-0.9-1.1-2.1-1.1-3.8v-9h2.2v8.9
				c0,2.1,0.8,3.1,2.4,3.1c1.7,0,2.8-0.7,3.4-2v-10h2.2v13.8H339L338.9,151.8z"/>
			<path class="st1" d="M350.4,136.1v3.3h2.4v1.8h-2.4v8.6c0,0.6,0.1,1,0.3,1.2c0.2,0.3,0.6,0.4,1.1,0.4c0.3,0,0.6-0.1,1.1-0.2v1.9
				c-0.6,0.2-1.1,0.3-1.7,0.3c-1,0-1.7-0.3-2.2-1s-0.8-1.5-0.8-2.7v-8.5h-2.4v-1.8h2.4v-3.3H350.4z"/>
			<path class="st1" d="M358.3,135.8c0-0.4,0.1-0.7,0.3-1c0.2-0.3,0.5-0.4,1-0.4c0.4,0,0.8,0.1,1,0.4c0.2,0.3,0.3,0.6,0.3,1
				s-0.1,0.7-0.3,1c-0.2,0.3-0.6,0.4-1,0.4c-0.4,0-0.8-0.1-1-0.4C358.4,136.5,358.3,136.1,358.3,135.8z M360.7,153.2h-2.2v-13.8h2.2
				V153.2z"/>
			<path class="st1" d="M366.6,146.2c0-1.3,0.2-2.6,0.7-3.6c0.5-1.1,1.2-1.9,2.1-2.5s1.9-0.9,3-0.9c1.8,0,3.2,0.6,4.3,1.9
				s1.6,3,1.6,5.2v0.2c0,1.3-0.2,2.5-0.7,3.6c-0.5,1.1-1.2,1.9-2.1,2.5c-0.9,0.6-1.9,0.9-3.1,0.9c-1.8,0-3.2-0.6-4.3-1.9
				c-1.1-1.3-1.6-3-1.6-5.2V146.2z M368.8,146.5c0,1.5,0.3,2.8,1,3.7c0.7,0.9,1.6,1.4,2.7,1.4c1.1,0,2-0.5,2.7-1.4s1-2.3,1-3.9
				c0-1.5-0.3-2.7-1-3.7c-0.7-0.9-1.6-1.4-2.7-1.4c-1.1,0-2,0.5-2.6,1.4C369.1,143.4,368.8,144.7,368.8,146.5z"/>
			<path class="st1" d="M386.1,139.4l0.1,1.7c1-1.3,2.3-2,3.9-2c2.7,0,4.1,1.6,4.1,4.9v9.1H392v-9.1c0-1-0.2-1.7-0.6-2.2
				c-0.4-0.5-1.1-0.7-2-0.7c-0.7,0-1.3,0.2-1.9,0.6s-1,0.9-1.3,1.6v9.8h-2.2v-13.8H386.1z"/>
			<path class="st1" d="M408,149.5c0-0.6-0.2-1.1-0.7-1.5c-0.5-0.4-1.2-0.7-2.4-0.9s-2-0.6-2.7-0.9c-0.7-0.4-1.1-0.8-1.5-1.3
				s-0.5-1.1-0.5-1.8c0-1.1,0.4-2.1,1.3-2.9s2-1.2,3.4-1.2c1.5,0,2.7,0.4,3.6,1.2s1.4,1.8,1.4,3.1h-2.2c0-0.6-0.3-1.2-0.8-1.7
				s-1.2-0.7-1.9-0.7c-0.8,0-1.4,0.2-1.9,0.6c-0.5,0.4-0.7,0.9-0.7,1.5c0,0.6,0.2,1,0.6,1.3c0.4,0.3,1.2,0.6,2.3,0.8
				c1.1,0.3,2,0.6,2.7,0.9c0.7,0.4,1.2,0.8,1.5,1.3s0.5,1.1,0.5,1.9c0,1.2-0.5,2.2-1.4,3s-2.1,1.1-3.6,1.1c-1,0-2-0.2-2.8-0.6
				s-1.4-0.9-1.9-1.6c-0.5-0.7-0.7-1.5-0.7-2.3h2.2c0,0.8,0.3,1.4,0.9,1.9s1.3,0.7,2.2,0.7c0.8,0,1.5-0.2,2-0.5
				C407.8,150.6,408,150.1,408,149.5z"/>
		</g>
		<path class="st1" d="M0,61.6c-0.1-8.7,1.4-17.3,4.6-25.4c2.9-7.2,7.1-13.8,12.6-19.4c5.3-5.4,11.6-9.6,18.5-12.4
			C42.9,1.4,50.5,0,58.2,0C63.9-0.1,69.5,0.6,75,1.9c4.3,1.1,8.6,2.6,12.7,4.4c3.7,1.7,7.3,3.7,10.6,6.2L80.9,45
			c-1.8-1.4-3.8-2.8-5.8-4c-2.2-1.1-4.4-2-6.7-2.7c-2.9-0.9-5.8-1.4-8.8-1.3c-3.2,0-6.5,0.6-9.4,1.9c-5.7,2.6-10.2,7.3-12.6,13.1
			c-1.2,3-1.8,6.3-1.8,9.6c0,3.3,0.6,6.5,1.9,9.6c2.5,5.9,7.1,10.6,13,13.1c3.1,1.3,6.4,2,9.8,1.9c3.2,0,6.4-0.4,9.4-1.4
			c2.4-0.8,4.8-1.9,6.9-3.2c2.1-1.3,4.1-2.8,5.8-4.6l17.4,32.5c-3.2,2.7-6.8,5-10.6,6.9c-4.1,1.9-8.4,3.4-12.7,4.6
			c-5.5,1.5-11.3,2.2-17,2.1c-8.2,0.1-16.2-1.4-23.8-4.5c-7.1-2.9-13.5-7.1-18.9-12.6c-5.4-5.6-9.7-12.2-12.4-19.4
			C1.4,78.6-0.1,70.1,0,61.6z"/>
		<path class="st1" d="M102.4,2.8h38c6.7-0.1,13.3,1,19.6,3c5.7,1.8,11.1,4.8,15.6,8.8c4.5,3.9,8,8.8,10.3,14.3
			c2.6,6.2,3.8,12.9,3.7,19.6c0.1,5.1-0.7,10.1-2.3,15c-1.3,3.6-3,7-5.1,10.2c-2.1,2.9-4.6,5.5-7.4,7.7l20.7,38.7h-41.3l-16.5-29.7
			v29.7h-35.2V2.8z"/>
		<path class="st1" d="M193.8,61.6c0-8.2,1.5-16.3,4.6-23.9c2.9-7.3,7.1-13.9,12.4-19.6c5.2-5.5,11.5-10,18.4-13.2
			c14.3-6.5,30.7-6.5,45,0c6.9,3.1,13.2,7.6,18.4,13.2c5.3,5.7,9.5,12.4,12.4,19.6c3.1,7.6,4.6,15.7,4.5,23.9
			c0,8.2-1.5,16.3-4.5,23.9c-2.9,7.3-7.1,13.9-12.4,19.6c-5.2,5.6-11.5,10-18.4,13.2c-14.3,6.5-30.7,6.5-45,0
			c-7-3.1-13.2-7.6-18.4-13.2c-5.3-5.7-9.5-12.4-12.4-19.6C195.3,77.9,193.7,69.8,193.8,61.6z"/>
		<path class="st1" d="M317,2.8h28.9L376.4,48V2.8h34.6v117.3h-29.1l-30.3-45v45H317V2.8z"/>
	</g>
</g>
<g>
</g>
<g>
</g>
<g>
</g>
<g>
</g>
<g>
</g>
<g>
</g>
<g>
</g>
<g>
</g>
<g>
</g>
<g>
</g>
<g>
</g>
<g>
</g>
<g>
</g>
<g>
</g>
<g>
</g>
</svg>
