<?xml version="1.0" encoding="utf-8"?>
<!-- Generator: Adobe Illustrator 21.0.1, SVG Export Plug-In . SVG Version: 6.00 Build 0)  -->
<svg version="1.1" id="Capa_1" xmlns="http://www.w3.org/2000/svg" xmlns:xlink="http://www.w3.org/1999/xlink" x="0px" y="0px"
	 viewBox="0 0 52.4 46.9" style="enable-background:new 0 0 52.4 46.9;" xml:space="preserve">
<style type="text/css">
	.st0{fill:#FFFFFF;}
</style>
<title>Recurso 1</title>
<g id="Capa_2">
	<g id="Capa_1-2">
		<path class="st0" d="M2.2,46.7l12.9-7.5c6.8-3.9,13.6-7.9,20.4-11.8c1.6-0.9,3.2-1.8,4.7-2.7c0.7-0.4,0.9-1.4,0.4-2.1
			c-0.1-0.2-0.3-0.3-0.4-0.4l-12.9-7.5C20.5,10.8,13.7,6.8,6.9,2.9C5.3,2,3.7,1.1,2.2,0.2c-0.4-0.3-1-0.3-1.4,0C0.3,0.4,0,0.9,0,1.5
			v44c0,0.8,0.7,1.4,1.5,1.4C1.7,46.9,2,46.8,2.2,46.7z M13.7,10.2c6.8,3.9,13.6,7.9,20.4,11.8c0.9,0.5,1.7,1,2.6,1.5
			c-3.6,2.1-7.2,4.1-10.7,6.2c-6.8,3.9-13.6,7.9-20.4,11.8c-0.8,0.5-1.7,1-2.5,1.5V4C6.5,6.1,10.1,8.1,13.7,10.2z"/>
		<path class="st0" d="M45.7,46.7h5.2c0.8,0,1.5-0.7,1.5-1.5V1.7c0-0.8-0.7-1.5-1.5-1.5h-5.2c-0.4,0-0.7,0.1-1,0.4
			c-0.3,0.2-0.4,0.6-0.4,1v43.5C44.2,45.9,44.8,46.6,45.7,46.7C45.7,46.7,45.7,46.7,45.7,46.7z M49.5,39.8v3.9h-2.3V3.2h2.3V39.8z"
			/>
	</g>
</g>
</svg>
