<?xml version="1.0" encoding="utf-8"?>
<!-- Generator: Adobe Illustrator 21.0.1, SVG Export Plug-In . SVG Version: 6.00 Build 0)  -->
<svg version="1.1" id="Capa_1" xmlns="http://www.w3.org/2000/svg" xmlns:xlink="http://www.w3.org/1999/xlink" x="0px" y="0px"
	 viewBox="0 0 19.8 46.5" style="enable-background:new 0 0 19.8 46.5;" xml:space="preserve">
<style type="text/css">
	.st0{fill:#FFFFFF;}
</style>
<title>Recurso 1</title>
<g id="Capa_2">
	<g id="Capa_1-2">
		<path class="st0" d="M6.7,0H1.5C0.7,0,0,0.7,0,1.5V45c0,0.8,0.7,1.5,1.5,1.5h5.2c0.4,0,0.7-0.1,1-0.4c0.3-0.2,0.4-0.6,0.4-1V1.6
			C8.2,0.8,7.6,0.1,6.9,0C6.8,0,6.8,0,6.7,0z M3,6.9V3h2.3v40.5H3V6.9z"/>
		<path class="st0" d="M18.4,0h-5.2c-0.8,0-1.5,0.7-1.5,1.5V45c0,0.8,0.7,1.5,1.5,1.5h5.2c0.4,0,0.7-0.1,1-0.4
			c0.3-0.2,0.4-0.6,0.4-1V1.6c0.1-0.8-0.5-1.5-1.2-1.6C18.5,0,18.5,0,18.4,0z M14.7,6.9V3H17v40.5h-2.3V6.9z"/>
	</g>
</g>
</svg>
