<?xml version="1.0" encoding="utf-8"?>
<!-- Generator: Adobe Illustrator 21.0.1, SVG Export Plug-In . SVG Version: 6.00 Build 0)  -->
<svg version="1.1" id="Capa_1" xmlns="http://www.w3.org/2000/svg" xmlns:xlink="http://www.w3.org/1999/xlink" x="0px" y="0px"
	 viewBox="0 0 41 47" style="enable-background:new 0 0 41 47;" xml:space="preserve">
<style type="text/css">
	.st0{fill:#FFFFFF;}
</style>
<title>Recurso 1</title>
<g id="Capa_2">
	<g id="Capa_1-2">
		<path class="st0" d="M40.2,22.2l-12.9-7.5C20.5,10.8,13.7,6.8,6.9,2.9C5.3,2,3.7,1.1,2.2,0.2c-0.4-0.3-1-0.3-1.4,0
			C0.3,0.4,0,0.9,0,1.5v44C0,46.3,0.7,47,1.6,47c0.2,0,0.4-0.1,0.6-0.2l12.9-7.5c6.8-3.9,13.6-7.9,20.4-11.8
			c1.6-0.9,3.2-1.8,4.7-2.7c0.7-0.4,1-1.3,0.6-2C40.6,22.5,40.4,22.3,40.2,22.2z M25.8,29.7C19,33.6,12.2,37.6,5.4,41.5
			c-0.8,0.5-1.7,1-2.5,1.5V4c3.6,2.1,7.2,4.1,10.7,6.2C20.4,14.1,27.2,18.1,34,22c0.9,0.5,1.7,1,2.6,1.5
			C33,25.6,29.4,27.6,25.8,29.7z"/>
	</g>
</g>
</svg>
