<?xml version="1.0" encoding="utf-8"?>
<!-- Generator: Adobe Illustrator 21.0.1, SVG Export Plug-In . SVG Version: 6.00 Build 0)  -->
<svg version="1.1" id="Capa_1" xmlns="http://www.w3.org/2000/svg" xmlns:xlink="http://www.w3.org/1999/xlink" x="0px" y="0px"
	 viewBox="0 0 52.4 46.9" style="enable-background:new 0 0 52.4 46.9;" xml:space="preserve">
<style type="text/css">
	.st0{fill:#FFFFFF;}
</style>
<title>Recurso 1</title>
<g id="Capa_2">
	<g id="Capa_1-2">
		<path class="st0" d="M50.2,0.2L37.3,7.7c-6.8,3.9-13.6,7.9-20.4,11.8c-1.6,0.9-3.2,1.8-4.7,2.7c-0.7,0.4-0.9,1.4-0.4,2.1
			c0.1,0.2,0.3,0.3,0.4,0.4l12.9,7.5c6.8,3.9,13.6,7.9,20.4,11.8c1.6,0.9,3.2,1.8,4.7,2.7c0.7,0.4,1.6,0.1,2-0.6
			c0.1-0.2,0.2-0.4,0.2-0.7v-44c0-0.8-0.7-1.4-1.5-1.4C50.7,0,50.4,0.1,50.2,0.2z M38.7,36.7c-6.8-3.9-13.6-7.9-20.4-11.8
			c-0.9-0.5-1.7-1-2.6-1.5c3.6-2.1,7.2-4.1,10.7-6.2C33.2,13.3,40,9.3,46.8,5.4c0.8-0.5,1.7-1,2.5-1.5v39
			C45.9,40.8,42.3,38.8,38.7,36.7z"/>
		<path class="st0" d="M6.7,0.2H1.5C0.7,0.2,0,0.9,0,1.7v43.5c0,0.8,0.7,1.5,1.5,1.5h5.2c0.4,0,0.7-0.1,1-0.4c0.3-0.2,0.4-0.6,0.4-1
			V1.8C8.2,1,7.6,0.3,6.7,0.2C6.7,0.2,6.7,0.2,6.7,0.2z M2.9,7.1V3.2h2.3v40.5H2.9V7.1z"/>
	</g>
</g>
</svg>
